<?xml version="1.0" encoding="UTF-8" standalone="no"?>
<svg
   xmlns:dc="http://purl.org/dc/elements/1.1/"
   xmlns:cc="http://creativecommons.org/ns#"
   xmlns:rdf="http://www.w3.org/1999/02/22-rdf-syntax-ns#"
   xmlns:svg="http://www.w3.org/2000/svg"
   xmlns="http://www.w3.org/2000/svg"
   viewBox="0 0 582.5 161.25"
   height="161.25"
   width="582.5"
   version="1.1"
   id="svg4190">
  <metadata
     id="metadata4196">
    <rdf:RDF>
      <cc:Work
         rdf:about="">
        <dc:format>image/svg+xml</dc:format>
        <dc:type
           rdf:resource="http://purl.org/dc/dcmitype/StillImage" />
        <dc:title></dc:title>
      </cc:Work>
    </rdf:RDF>
  </metadata>
  <defs
     id="defs4194" />
  <path
     id="path4200"
     d="m 48.75,79.211447 0,-64.538553 4.6875,0.774796 c 2.578125,0.426137 14.109375,0.780986 25.625,0.788552 L 100,16.25 l 0,9.338719 0,9.338718 L 83.4375,35.276219 66.875,35.625 66.527225,52.8125 66.179451,70 81.839725,70 97.5,70 l 0,9.961526 0,9.961526 -15.3125,0.350974 -15.3125,0.350974 -0.348781,16.5625 -0.348782,16.5625 16.911282,0 16.911281,0 0,10 0,10 -25.625,0 -25.625,0 0,-64.538553 z m 77.5,54.538553 0,-10 23.125,0 23.125,0 0,-16.875 0,-16.875 -21.74126,0 c -18.67208,0 -21.84838,-0.279124 -22.5,-1.977234 -0.41731,-1.08748 -0.75874,-17.68123 -0.75874,-36.875 l 0,-34.897766 31.06925,0 31.06924,0 0.77459,8.294806 c 0.42601,4.562144 0.47416,8.780894 0.107,9.375 C 190.15287,34.513912 180.32315,35 168.67622,35 L 147.5,35 l 0,17.5 0,17.5 21.69157,0 21.69159,0 0.80841,9.563597 C 193.14419,96.747912 192.66051,140.58949 191,142.25 c -1.08761,1.08761 -10.19445,1.5 -33.125,1.5 l -31.625,0 0,-10 z m 84.0625,9.17215 c -1.221,-0.49269 -1.5625,-14.40424 -1.5625,-63.651316 l 0,-63.020834 30.9375,1.1e-5 30.9375,1.1e-5 0,9.062489 0,9.062489 -20.9375,0.342724 -20.9375,0.342724 0,44.344776 0,44.344776 20.46349,0 20.46348,0 0.86194,8.74732 c 0.47406,4.81103 0.51355,9.31103 0.0878,10 -0.7872,1.27373 -57.22519,1.67125 -60.31415,0.42483 z m 74.69396,-50.68207 c 0.004,-28.388294 0.36965,-57.099455 0.81354,-63.80258 l 0.80706,-12.1875 36.07314,0 36.07314,0 -0.32416,62.1875 -0.32418,62.1875 -9.6875,0.36508 -9.6875,0.36508 0,-25.67758 0,-25.67758 -16.85014,0 -16.85014,0 -0.33736,26.5625 -0.33736,26.5625 -9.6875,0.36508 -9.6875,0.36508 0.006,-51.61508 z M 338.75,52.5 l 0,-17.5 -16.875,0 -16.875,0 0,17.5 0,17.5 16.875,0 16.875,0 0,-17.5 z M 375.30101,80.365288 375.625,16.875 l 37.15902,-0.331058 37.15903,-0.331056 0.69196,2.831056 c 0.38059,1.557083 0.53403,18.018558 0.34098,36.581058 l -0.35099,33.75 -27.78771,0.336349 -27.78772,0.336347 -0.33728,26.538654 -0.33729,26.53865 -9.69899,0.36529 -9.69898,0.36529 0.32398,-63.490292 z M 431.25,52.5 l 0,-17.5 -18.125,0 -18.125,0 0,17.5 0,17.5 18.125,0 18.125,0 0,-17.5 z m 36.25,27.5 0,-63.75 28.72619,0 28.72619,0 0.72667,2.895339 c 0.39968,1.592435 0.55102,5.67056 0.33631,9.0625 L 525.625,34.375 506.5625,34.720058 487.5,35.065115 l 0,17.435701 0,17.435701 19.6875,0.344242 19.6875,0.344241 0,9.375 0,9.375 -19.6875,0.344241 -19.6875,0.344242 0,16.811517 0,16.81152 19.6875,0.34424 19.6875,0.34424 0.36507,9.6875 0.36509,9.6875 -30.05259,0 -30.05257,0 0,-63.75 z"
     style="fill:#000000" />
</svg>
