<?xml version="1.0" encoding="UTF-8" standalone="no"?>
<svg
   xmlns:dc="http://purl.org/dc/elements/1.1/"
   xmlns:cc="http://creativecommons.org/ns#"
   xmlns:rdf="http://www.w3.org/1999/02/22-rdf-syntax-ns#"
   xmlns:svg="http://www.w3.org/2000/svg"
   xmlns="http://www.w3.org/2000/svg"
   viewBox="0 0 817.5 172.5"
   height="172.5"
   width="817.5"
   version="1.1"
   id="svg4275">
  <metadata
     id="metadata4281">
    <rdf:RDF>
      <cc:Work
         rdf:about="">
        <dc:format>image/svg+xml</dc:format>
        <dc:type
           rdf:resource="http://purl.org/dc/dcmitype/StillImage" />
        <dc:title></dc:title>
      </cc:Work>
    </rdf:RDF>
  </metadata>
  <defs
     id="defs4279" />
  <path
     id="path4825"
     d="M 70.641115,151.30078 C 70.195844,149.89785 69.35056,148.75 68.762705,148.75 68.174851,148.75 67.044134,146.78125 66.25,144.375 65.455866,141.96875 64.330866,140 63.75,140 c -0.580866,0 -1.705866,-1.96875 -2.5,-4.375 -0.794134,-2.40625 -1.876799,-4.375 -2.405922,-4.375 -0.529123,0 -1.572431,-1.26563 -2.318459,-2.8125 -1.074476,-2.2279 -1.374003,-0.14933 -1.441019,10 L 55,151.25 l -8.75,0 -8.75,0 0,-62.397766 c 0,-34.31877 0.341431,-63.28752 0.758736,-64.375 C 38.920546,22.752585 42.735855,22.5 68.125,22.5 c 25.389145,0 29.204454,0.252585 29.866264,1.977234 0.417305,1.08748 0.758736,17.00623 0.758736,35.375 0,24.309374 -0.408189,33.805955 -1.5,34.897766 -0.969299,0.969299 -5.981481,1.5 -14.166666,1.5 -6.966668,0 -13.01239,0.345722 -13.43494,0.768274 -0.683412,0.68341 2.264124,6.361046 4.143701,7.981726 0.398663,0.34375 1.464273,2.45313 2.368022,4.6875 0.903752,2.23438 2.024442,4.0625 2.490423,4.0625 0.465981,0 1.559147,1.96875 2.42926,4.375 0.870111,2.40625 2.047131,4.375 2.6156,4.375 0.568469,0 1.360491,1.30252 1.760051,2.89449 0.399559,1.59197 1.88845,4.23426 3.308648,5.87177 2.205186,2.5426 2.529525,4.35559 2.22154,12.418 L 90.625,153.125 l -9.58715,0.36328 c -8.720476,0.33043 -9.660338,0.13268 -10.396735,-2.1875 z M 78.75,59.328092 78.75,42.406185 67.1875,42.765592 55.625,43.125 55.276219,59.6875 54.927437,76.25 l 11.911282,0 11.911281,0 0,-16.921908 z M 306.29295,147.8125 c -0.84258,-3.26563 -2.00794,-7.34375 -2.58968,-9.0625 -0.58174,-1.71875 -2.07485,-7.34375 -3.318,-12.5 l -2.26027,-9.375 -0.625,16.875 -0.625,16.875 -9.6875,0.36508 -9.6875,0.36508 0,-63.80258 0,-63.80258 9.85421,0 c 9.13669,0 9.91544,0.204788 10.6951,2.8125 0.4625,1.546875 2.46935,9.206874 4.45968,17.022219 1.99033,7.815346 3.92754,14.518471 4.3049,14.895834 0.37736,0.377362 0.68611,-7.282637 0.68611,-17.022219 l 0,-17.708334 10,0 10,0 0,65 0,65 -9.83755,0 -9.83755,0 -1.53195,-5.9375 z m 58.35247,0.625 C 364.29998,146.20312 362.31083,137.90625 360.22509,130 l -3.79227,-14.375 -0.0914,17.8125 -0.0915,17.8125 -10,0 -10,0 0,-64.375 0,-64.375 9.89877,0 9.89877,0 1.23456,5.3125 c 0.679,2.921875 2.19127,8.6875 3.36059,12.8125 1.16932,4.125 2.57888,9.372689 3.13237,11.66153 1.93477,8.000931 2.47494,5.501207 2.47494,-11.453196 l 0,-17.083334 10,0 10,0 0,62.397766 c 0,34.318774 -0.34143,63.287524 -0.75874,64.374994 -0.60194,1.56865 -2.76931,1.97724 -10.48824,1.97724 l -9.72951,0 -0.62809,-4.0625 z M 113.75,88.17758 113.75,25 l 10,0 10,0 0,25.625 0,25.625 13.75,0 13.75,0 0,-26.875 0,-26.875 10.01156,0 10.01157,0 -0.32407,62.8125 -0.32406,62.8125 -9.6875,0.36508 -9.6875,0.36508 0,-26.30258 0,-26.30258 -13.72563,0 -13.72562,0 -0.33688,27.1875 -0.33687,27.1875 -9.6875,0.36508 -9.6875,0.36508 0,-63.17758 z m 82.5,-1.282806 0,-64.394774 33.80257,0 33.80259,0 -0.36509,9.6875 -0.36507,9.6875 -23.4375,0.340081 -23.4375,0.340083 0,16.847417 0,16.847419 23.80257,0 23.80259,0 -0.36509,9.6875 -0.36507,9.6875 -23.4375,0.340081 -23.4375,0.340083 0,17.472416 0,17.47242 25.05257,0 25.05259,0 -0.36509,9.6875 -0.36507,9.6875 -34.6875,0.33227 -34.6875,0.33228 0,-64.394776 z m 202.5,1.95746 c 0,-34.31877 0.34143,-63.28752 0.75874,-64.375 C 400.17555,22.739549 404.49801,22.5 435.18631,22.5 l 34.91885,0 -0.36509,9.6875 -0.36507,9.6875 -25.3125,0.338381 -25.3125,0.338383 0,16.849117 0,16.849119 23.75,0 23.75,0 0,10 0,10 -23.75,0 -23.75,0 0,17.5 0,17.5 25.625,0 25.625,0 0,10 0,10 -35.625,0 -35.625,0 0,-62.397766 z M 578.76914,88.4375 c 0.01,-34.546875 0.4699,-63.522575 1.02082,-64.390444 0.78357,-1.234359 11.19019,-1.506536 47.79335,-1.25 L 674.375,23.125 l 0.32385,64.0625 0.32385,64.0625 -10.01135,0 -10.01135,0 0,-27.5 0,-27.5 -28.125,0 -28.125,0 0,27.5 0,27.5 -10,0 -10,0 0.0191,-62.8125 z M 655,59.375 655,42.5 l -28.125,0 -28.125,0 0,16.875 0,16.875 28.125,0 28.125,0 0,-16.875 z m 47.5,29.477234 c 0,-34.31877 0.34143,-63.28752 0.75874,-64.375 C 703.92191,22.74903 707.8578,22.5 734.50862,22.5 l 30.49117,0 12.50011,12.439067 12.5001,12.439068 0,39.435933 c 0,21.689762 -0.4495,39.435932 -0.99889,39.435932 -0.54939,0 -1.7108,1.96875 -2.58091,4.375 -0.87011,2.40625 -1.99511,4.375 -2.5,4.375 -0.50489,0 -1.62989,1.96875 -2.5,4.375 -0.87011,2.40625 -2.10811,4.375 -2.75111,4.375 -0.643,0 -1.16909,0.80357 -1.16909,1.78571 0,0.98215 -0.88392,2.66965 -1.96429,3.75 -1.69359,1.69359 -6.86147,1.96429 -37.5,1.96429 l -35.53571,0 0,-62.397766 z m 55.06663,40.210266 c 1.02972,-1.20312 2.62922,-4.01562 3.55445,-6.25 0.92522,-2.23437 2.06348,-4.0625 2.52946,-4.0625 0.46599,0 1.55915,-1.96875 2.42926,-4.375 0.87011,-2.40625 2.10811,-4.375 2.75111,-4.375 C 769.51319,110 770,100.60342 770,87.43376 L 770,64.86752 759.17421,53.68376 748.34842,42.5 l -12.92421,0 -12.92421,0 0,44.375 0,44.375 16.5972,0 c 14.26029,0 16.86081,-0.308 18.46942,-2.1875 z m -247.93801,18.125 C 508.73989,143.41634 502.08105,118.47165 498.03325,103.75 496.23744,97.21875 494.30997,89.90625 493.75,87.5 493.19003,85.09375 491.26069,77.78125 489.4626,71.25 482.30731,45.259596 481.27896,40.281103 481.26476,31.5625 L 481.25,22.5 l 9.89877,0 9.89877,0 1.27236,5.3125 c 1.35295,5.649001 2.39971,9.564209 5.76494,21.5625 1.15696,4.125 4.2226,15.906996 6.81252,26.182214 l 4.70895,18.682214 1.94259,-5.557214 c 1.06841,-3.056468 2.56325,-7.947839 3.32184,-10.869714 1.84132,-7.092237 3.37594,-12.828869 6.43696,-24.0625 1.40502,-5.15625 3.4889,-13.03125 4.63085,-17.5 1.14195,-4.46875 2.52294,-8.3125 3.06886,-8.541666 C 539.55334,27.479166 540,26.494791 540,25.520834 540,24.140625 542.20589,23.75 550,23.75 l 10,0 0,8.451949 c 0,5.126342 -1.2544,13.118745 -3.18802,20.3125 -1.75342,6.523303 -3.67037,14.110551 -4.25989,16.860551 -0.98135,4.577739 -5.67295,22.517498 -10.7877,41.25 -1.12629,4.125 -2.46271,7.78125 -2.96982,8.125 -0.5071,0.34375 -1.24082,2.03125 -1.63049,3.75 -1.14362,5.04411 -5.47487,21.64696 -6.44237,24.69529 -0.82239,2.59112 -1.63418,2.80471 -10.66022,2.80471 -9.10218,0 -9.81535,-0.19226 -10.43287,-2.8125 z"
     style="fill:#000000" />
</svg>
